solid
facet normal +9.8162718E-01 +1.9080899E-01 +0.0000000E+00
outer loop
vertex   +1.9554659E+02 -1.0060000E+03 +1.5500000E+03
vertex   +1.9554659E+02 -1.0060000E+03 +1.6500000E+03
vertex   +3.3044652E+02 -1.7000000E+03 +1.6500000E+03
endloop
endfacet
facet normal +9.8162718E-01 +1.9080899E-01 +0.0000000E+00
outer loop
vertex   +3.3044652E+02 -1.7000000E+03 +1.6500000E+03
vertex   +3.3044652E+02 -1.7000000E+03 +1.5500000E+03
vertex   +1.9554659E+02 -1.0060000E+03 +1.5500000E+03
endloop
endfacet
facet normal +5.2324181E-15 +1.0000000E-00 +0.0000000E+00
outer loop
vertex   -1.9554659E+02 -1.0060000E+03 +1.5500000E+03
vertex   -1.9554659E+02 -1.0060000E+03 +1.6500000E+03
vertex   +1.9554659E+02 -1.0060000E+03 +1.6500000E+03
endloop
endfacet
facet normal +5.2324181E-15 +1.0000000E+00 +0.0000000E+00
outer loop
vertex   +1.9554659E+02 -1.0060000E+03 +1.6500000E+03
vertex   +1.9554659E+02 -1.0060000E+03 +1.5500000E+03
vertex   -1.9554659E+02 -1.0060000E+03 +1.5500000E+03
endloop
endfacet
facet normal -9.8162718E-01 +1.9080899E-01 +0.0000000E+00
outer loop
vertex   -3.3044652E+02 -1.7000000E+03 +1.6500000E+03
vertex   -1.9554659E+02 -1.0060000E+03 +1.6500000E+03
vertex   -1.9554659E+02 -1.0060000E+03 +1.5500000E+03
endloop
endfacet
facet normal -9.8162718E-01 +1.9080899E-01 +0.0000000E+00
outer loop
vertex   -1.9554659E+02 -1.0060000E+03 +1.5500000E+03
vertex   -3.3044652E+02 -1.7000000E+03 +1.5500000E+03
vertex   -3.3044652E+02 -1.7000000E+03 +1.6500000E+03
endloop
endfacet
facet normal -3.4404004E-15 -1.0000000E+00 +0.0000000E+00
outer loop
vertex   +3.3044652E+02 -1.7000000E+03 +1.5500000E+03
vertex   +3.3044652E+02 -1.7000000E+03 +1.6500000E+03
vertex   -3.3044652E+02 -1.7000000E+03 +1.6500000E+03
endloop
endfacet
facet normal -3.4404004E-15 -1.0000000E+00 +0.0000000E+00
outer loop
vertex   -3.3044652E+02 -1.7000000E+03 +1.6500000E+03
vertex   -3.3044652E+02 -1.7000000E+03 +1.5500000E+03
vertex   +3.3044652E+02 -1.7000000E+03 +1.5500000E+03
endloop
endfacet
facet normal +1.7142855E-30 +3.2762777E-16 -1.0000000E+00
outer loop
vertex   -3.3044652E+02 -1.7000000E+03 +1.5500000E+03
vertex   -1.9554659E+02 -1.0060000E+03 +1.5500000E+03
vertex   +1.9554659E+02 -1.0060000E+03 +1.5500000E+03
endloop
endfacet
facet normal +3.4404004E-16 +6.6874610E-17 -1.0000000E-00
outer loop
vertex   +1.9554659E+02 -1.0060000E+03 +1.5500000E+03
vertex   +3.3044652E+02 -1.7000000E+03 +1.5500000E+03
vertex   -3.3044652E+02 -1.7000000E+03 +1.5500000E+03
endloop
endfacet
facet normal -3.4404004E-16 -3.9450238E-16 +1.0000000E-00
outer loop
vertex   -3.3044652E+02 -1.7000000E+03 +1.6500000E+03
vertex   +3.3044652E+02 -1.7000000E+03 +1.6500000E+03
vertex   +1.9554659E+02 -1.0060000E+03 +1.6500000E+03
endloop
endfacet
facet normal -5.8137979E-16 -2.1461898E-16 +1.0000000E+00
outer loop
vertex   +1.9554659E+02 -1.0060000E+03 +1.6500000E+03
vertex   -1.9554659E+02 -1.0060000E+03 +1.6500000E+03
vertex   -3.3044652E+02 -1.7000000E+03 +1.6500000E+03
endloop
endfacet
endsolid
