solid
facet normal -1.9080899E-01 +9.8162718E-01 -2.7899522E-16
outer loop
vertex   +1.1650131E+03 +2.2645562E+02 -1.6500000E+03
vertex   +1.1650131E+03 +2.2645562E+02 -1.5500000E+03
vertex   +1.7000000E+03 +3.3044652E+02 -1.5500000E+03
endloop
endfacet
facet normal -1.9080899E-01 +9.8162718E-01 -2.7899522E-16
outer loop
vertex   +1.1650131E+03 +2.2645562E+02 -1.5500000E+03
vertex   +1.1650131E+03 +2.2645562E+02 -1.6500000E+03
vertex   +6.3002637E+02 +1.2246472E+02 -1.6500000E+03
endloop
endfacet
facet normal -1.9080899E-01 +9.8162718E-01 +1.3949761E-16
outer loop
vertex   +6.3002637E+02 +1.2246472E+02 -1.6500000E+03
vertex   +6.3002637E+02 +1.2246472E+02 -1.5500000E+03
vertex   +1.1650131E+03 +2.2645562E+02 -1.5500000E+03
endloop
endfacet
facet normal -1.9080899E-01 +9.8162718E-01 +0.0000000E+00
outer loop
vertex   +1.7000000E+03 +3.3044652E+02 -1.5500000E+03
vertex   +1.7000000E+03 +3.3044652E+02 -1.6500000E+03
vertex   +1.1650131E+03 +2.2645562E+02 -1.6500000E+03
endloop
endfacet
facet normal +1.0000000E+00 +2.7523203E-15 +0.0000000E+00
outer loop
vertex   +1.7000000E+03 +3.3044652E+02 -1.6500000E+03
vertex   +1.7000000E+03 +3.3044652E+02 -1.5500000E+03
vertex   +1.7000000E+03 -3.3044652E+02 -1.5500000E+03
endloop
endfacet
facet normal +1.0000000E+00 +2.7523203E-15 +0.0000000E+00
outer loop
vertex   +1.7000000E+03 -3.3044652E+02 -1.5500000E+03
vertex   +1.7000000E+03 -3.3044652E+02 -1.6500000E+03
vertex   +1.7000000E+03 +3.3044652E+02 -1.6500000E+03
endloop
endfacet
facet normal -1.9080899E-01 -9.8162718E-01 +0.0000000E+00
outer loop
vertex   +6.3002637E+02 -1.2246472E+02 -1.6500000E+03
vertex   +1.1650131E+03 -2.2645562E+02 -1.6500000E+03
vertex   +1.1650131E+03 -2.2645562E+02 -1.5500000E+03
endloop
endfacet
facet normal -1.9080899E-01 -9.8162718E-01 +0.0000000E+00
outer loop
vertex   +1.7000000E+03 -3.3044652E+02 -1.5500000E+03
vertex   +1.1650131E+03 -2.2645562E+02 -1.5500000E+03
vertex   +1.1650131E+03 -2.2645562E+02 -1.6500000E+03
endloop
endfacet
facet normal -1.9080899E-01 -9.8162718E-01 +0.0000000E+00
outer loop
vertex   +1.1650131E+03 -2.2645562E+02 -1.6500000E+03
vertex   +1.7000000E+03 -3.3044652E+02 -1.6500000E+03
vertex   +1.7000000E+03 -3.3044652E+02 -1.5500000E+03
endloop
endfacet
facet normal -1.9080899E-01 -9.8162718E-01 -1.3949761E-16
outer loop
vertex   +1.1650131E+03 -2.2645562E+02 -1.5500000E+03
vertex   +6.3002637E+02 -1.2246472E+02 -1.5500000E+03
vertex   +6.3002637E+02 -1.2246472E+02 -1.6500000E+03
endloop
endfacet
facet normal -1.0000000E+00 -4.6416158E-16 +0.0000000E+00
outer loop
vertex   +6.3002637E+02 -1.2246472E+02 -1.6500000E+03
vertex   +6.3002637E+02 -1.2246472E+02 -1.5500000E+03
vertex   +6.3002637E+02 +1.2246472E+02 -1.5500000E+03
endloop
endfacet
facet normal -1.0000000E+00 -4.6416158E-16 +0.0000000E+00
outer loop
vertex   +6.3002637E+02 +1.2246472E+02 -1.5500000E+03
vertex   +6.3002637E+02 +1.2246472E+02 -1.6500000E+03
vertex   +6.3002637E+02 -1.2246472E+02 -1.6500000E+03
endloop
endfacet
facet normal +0.0000000E+00 +0.0000000E+00 -1.0000000E+00
outer loop
vertex   +1.7000000E+03 -3.3044652E+02 -1.6500000E+03
vertex   +1.1650131E+03 -2.2645562E+02 -1.6500000E+03
vertex   +1.1650131E+03 +2.2645562E+02 -1.6500000E+03
endloop
endfacet
facet normal +0.0000000E+00 +0.0000000E+00 -1.0000000E+00
outer loop
vertex   +1.1650131E+03 -2.2645562E+02 -1.6500000E+03
vertex   +6.3002637E+02 -1.2246472E+02 -1.6500000E+03
vertex   +6.3002637E+02 +1.2246472E+02 -1.6500000E+03
endloop
endfacet
facet normal +0.0000000E+00 +0.0000000E+00 -1.0000000E+00
outer loop
vertex   +6.3002637E+02 +1.2246472E+02 -1.6500000E+03
vertex   +1.1650131E+03 +2.2645562E+02 -1.6500000E+03
vertex   +1.1650131E+03 -2.2645562E+02 -1.6500000E+03
endloop
endfacet
facet normal +0.0000000E+00 +0.0000000E+00 -1.0000000E+00
outer loop
vertex   +1.1650131E+03 +2.2645562E+02 -1.6500000E+03
vertex   +1.7000000E+03 +3.3044652E+02 -1.6500000E+03
vertex   +1.7000000E+03 -3.3044652E+02 -1.6500000E+03
endloop
endfacet
facet normal +9.7584164E-17 -5.0202700E-16 +1.0000000E+00
outer loop
vertex   +1.1650131E+03 -2.2645562E+02 -1.5500000E+03
vertex   +1.1650131E+03 +2.2645562E+02 -1.5500000E+03
vertex   +6.3002637E+02 +1.2246472E+02 -1.5500000E+03
endloop
endfacet
facet normal +6.6874610E-17 -3.4404004E-16 +1.0000000E+00
outer loop
vertex   +1.7000000E+03 -3.3044652E+02 -1.5500000E+03
vertex   +1.7000000E+03 +3.3044652E+02 -1.5500000E+03
vertex   +1.1650131E+03 +2.2645562E+02 -1.5500000E+03
endloop
endfacet
facet normal -9.7584164E-17 -5.0202700E-16 +1.0000000E+00
outer loop
vertex   +1.1650131E+03 +2.2645562E+02 -1.5500000E+03
vertex   +1.1650131E+03 -2.2645562E+02 -1.5500000E+03
vertex   +1.7000000E+03 -3.3044652E+02 -1.5500000E+03
endloop
endfacet
facet normal +4.2500799E-16 +0.0000000E+00 +1.0000000E+00
outer loop
vertex   +6.3002637E+02 +1.2246472E+02 -1.5500000E+03
vertex   +6.3002637E+02 -1.2246472E+02 -1.5500000E+03
vertex   +1.1650131E+03 -2.2645562E+02 -1.5500000E+03
endloop
endfacet
endsolid
