solid
facet normal +7.0710678E-01 +7.0710678E-01 +0.0000000E+00
outer loop      
vertex   +1.5026019E+03 +1.0429825E+03 +1.6500000E+03
vertex   +1.5026019E+03 +1.0429825E+03 +8.2500000E+02
vertex   +1.0429825E+03 +1.5026019E+03 +8.2500000E+02
endloop
endfacet
facet normal +7.0710678E-01 +7.0710678E-01 +0.0000000E+00
outer loop      
vertex   +1.0429825E+03 +1.5026019E+03 +0.0000000E+00
vertex   +1.0429825E+03 +1.5026019E+03 +8.2500000E+02
vertex   +1.5026019E+03 +1.0429825E+03 +8.2500000E+02
endloop
endfacet
facet normal +7.0710678E-01 +7.0710678E-01 +0.0000000E+00
outer loop      
vertex   +1.5026019E+03 +1.0429825E+03 +8.2500000E+02
vertex   +1.5026019E+03 +1.0429825E+03 +0.0000000E+00
vertex   +1.0429825E+03 +1.5026019E+03 +0.0000000E+00
endloop
endfacet
facet normal +7.0710678E-01 +7.0710678E-01 +0.0000000E+00
outer loop      
vertex   +1.0429825E+03 +1.5026019E+03 -8.2500000E+02
vertex   +1.0429825E+03 +1.5026019E+03 +0.0000000E+00
vertex   +1.5026019E+03 +1.0429825E+03 +0.0000000E+00
endloop
endfacet
facet normal +7.0710678E-01 +7.0710678E-01 +0.0000000E+00
outer loop      
vertex   +1.5026019E+03 +1.0429825E+03 +0.0000000E+00
vertex   +1.5026019E+03 +1.0429825E+03 -8.2500000E+02
vertex   +1.0429825E+03 +1.5026019E+03 -8.2500000E+02
endloop
endfacet
facet normal +7.0710678E-01 +7.0710678E-01 +3.8976355E-16
outer loop      
vertex   +1.0429825E+03 +1.5026019E+03 -1.6500000E+03
vertex   +1.0429825E+03 +1.5026019E+03 -8.2500000E+02
vertex   +1.5026019E+03 +1.0429825E+03 -8.2500000E+02
endloop
endfacet
facet normal +7.0710678E-01 +7.0710678E-01 +3.8976355E-16
outer loop      
vertex   +1.5026019E+03 +1.0429825E+03 -8.2500000E+02
vertex   +1.5026019E+03 +1.0429825E+03 -1.6500000E+03
vertex   +1.0429825E+03 +1.5026019E+03 -1.6500000E+03
endloop
endfacet
facet normal +7.0710678E-01 +7.0710678E-01 +0.0000000E+00
outer loop      
vertex   +1.0429825E+03 +1.5026019E+03 +8.2500000E+02
vertex   +1.0429825E+03 +1.5026019E+03 +1.6500000E+03
vertex   +1.5026019E+03 +1.0429825E+03 +1.6500000E+03
endloop
endfacet
facet normal -7.0710678E-01 +7.0710678E-01 +0.0000000E+00
outer loop      
vertex   +1.0429825E+03 +1.5026019E+03 +1.6500000E+03
vertex   +1.0429825E+03 +1.5026019E+03 +8.2500000E+02
vertex   +9.7227182E+02 +1.4318912E+03 +8.2500000E+02
endloop
endfacet
facet normal -7.0710678E-01 +7.0710678E-01 +0.0000000E+00
outer loop      
vertex   +1.0429825E+03 +1.5026019E+03 +8.2500000E+02
vertex   +1.0429825E+03 +1.5026019E+03 +0.0000000E+00
vertex   +9.7227182E+02 +1.4318912E+03 +0.0000000E+00
endloop
endfacet
facet normal -7.0710678E-01 +7.0710678E-01 -9.7440889E-17
outer loop      
vertex   +9.7227182E+02 +1.4318912E+03 +0.0000000E+00
vertex   +9.7227182E+02 +1.4318912E+03 +8.2500000E+02
vertex   +1.0429825E+03 +1.5026019E+03 +8.2500000E+02
endloop
endfacet
facet normal -7.0710678E-01 +7.0710678E-01 +0.0000000E+00
outer loop      
vertex   +9.7227182E+02 +1.4318912E+03 -8.2500000E+02
vertex   +9.7227182E+02 +1.4318912E+03 +0.0000000E+00
vertex   +1.0429825E+03 +1.5026019E+03 +0.0000000E+00
endloop
endfacet
facet normal -7.0710678E-01 +7.0710678E-01 +1.9488177E-16
outer loop      
vertex   +9.7227182E+02 +1.4318912E+03 -1.6500000E+03
vertex   +9.7227182E+02 +1.4318912E+03 -8.2500000E+02
vertex   +1.0429825E+03 +1.5026019E+03 -8.2500000E+02
endloop
endfacet
facet normal -7.0710678E-01 +7.0710678E-01 +0.0000000E+00
outer loop      
vertex   +1.0429825E+03 +1.5026019E+03 +0.0000000E+00
vertex   +1.0429825E+03 +1.5026019E+03 -8.2500000E+02
vertex   +9.7227182E+02 +1.4318912E+03 -8.2500000E+02
endloop
endfacet
facet normal -7.0710678E-01 +7.0710678E-01 +0.0000000E+00
outer loop      
vertex   +9.7227182E+02 +1.4318912E+03 +8.2500000E+02
vertex   +9.7227182E+02 +1.4318912E+03 +1.6500000E+03
vertex   +1.0429825E+03 +1.5026019E+03 +1.6500000E+03
endloop
endfacet
facet normal -7.0710678E-01 +7.0710678E-01 +1.2533039E-30
outer loop      
vertex   +1.0429825E+03 +1.5026019E+03 -8.2500000E+02
vertex   +1.0429825E+03 +1.5026019E+03 -1.6500000E+03
vertex   +9.7227182E+02 +1.4318912E+03 -1.6500000E+03
endloop
endfacet
facet normal -7.0710678E-01 -7.0710678E-01 +0.0000000E+00
outer loop      
vertex   +9.7227182E+02 +1.4318912E+03 +1.6500000E+03
vertex   +9.7227182E+02 +1.4318912E+03 +8.2500000E+02
vertex   +1.4318912E+03 +9.7227182E+02 +8.2500000E+02
endloop
endfacet
facet normal -7.0710678E-01 -7.0710678E-01 -9.7440889E-17
outer loop      
vertex   +1.4318912E+03 +9.7227182E+02 +8.2500000E+02
vertex   +9.7227182E+02 +1.4318912E+03 +8.2500000E+02
vertex   +9.7227182E+02 +1.4318912E+03 +0.0000000E+00
endloop
endfacet
facet normal -7.0710678E-01 -7.0710678E-01 -2.9232266E-16
outer loop      
vertex   +9.7227182E+02 +1.4318912E+03 +0.0000000E+00
vertex   +1.4318912E+03 +9.7227182E+02 +0.0000000E+00
vertex   +1.4318912E+03 +9.7227182E+02 +8.2500000E+02
endloop
endfacet
facet normal -7.0710678E-01 -7.0710678E-01 +0.0000000E+00
outer loop      
vertex   +1.4318912E+03 +9.7227182E+02 -8.2500000E+02
vertex   +1.4318912E+03 +9.7227182E+02 +0.0000000E+00
vertex   +9.7227182E+02 +1.4318912E+03 +0.0000000E+00
endloop
endfacet
facet normal -7.0710678E-01 -7.0710678E-01 +0.0000000E+00
outer loop      
vertex   +9.7227182E+02 +1.4318912E+03 +0.0000000E+00
vertex   +9.7227182E+02 +1.4318912E+03 -8.2500000E+02
vertex   +1.4318912E+03 +9.7227182E+02 -8.2500000E+02
endloop
endfacet
facet normal -7.0710678E-01 -7.0710678E-01 -9.7440889E-17
outer loop      
vertex   +1.4318912E+03 +9.7227182E+02 -1.6500000E+03
vertex   +1.4318912E+03 +9.7227182E+02 -8.2500000E+02
vertex   +9.7227182E+02 +1.4318912E+03 -8.2500000E+02
endloop
endfacet
facet normal -7.0710678E-01 -7.0710678E-01 -1.9488177E-16
outer loop      
vertex   +9.7227182E+02 +1.4318912E+03 -8.2500000E+02
vertex   +9.7227182E+02 +1.4318912E+03 -1.6500000E+03
vertex   +1.4318912E+03 +9.7227182E+02 -1.6500000E+03
endloop
endfacet
facet normal -7.0710678E-01 -7.0710678E-01 +9.7440889E-17
outer loop      
vertex   +1.4318912E+03 +9.7227182E+02 +8.2500000E+02
vertex   +1.4318912E+03 +9.7227182E+02 +1.6500000E+03
vertex   +9.7227182E+02 +1.4318912E+03 +1.6500000E+03
endloop
endfacet
facet normal +7.0710678E-01 -7.0710678E-01 +9.7440889E-17
outer loop      
vertex   +1.4318912E+03 +9.7227182E+02 +1.6500000E+03
vertex   +1.4318912E+03 +9.7227182E+02 +8.2500000E+02
vertex   +1.5026019E+03 +1.0429825E+03 +8.2500000E+02
endloop
endfacet
facet normal +7.0710678E-01 -7.0710678E-01 +9.7440889E-17
outer loop      
vertex   +1.5026019E+03 +1.0429825E+03 +8.2500000E+02
vertex   +1.4318912E+03 +9.7227182E+02 +8.2500000E+02
vertex   +1.4318912E+03 +9.7227182E+02 +0.0000000E+00
endloop
endfacet
facet normal +7.0710678E-01 -7.0710678E-01 +0.0000000E+00
outer loop      
vertex   +1.4318912E+03 +9.7227182E+02 +0.0000000E+00
vertex   +1.5026019E+03 +1.0429825E+03 +0.0000000E+00
vertex   +1.5026019E+03 +1.0429825E+03 +8.2500000E+02
endloop
endfacet
facet normal +7.0710678E-01 -7.0710678E-01 +0.0000000E+00
outer loop      
vertex   +1.5026019E+03 +1.0429825E+03 -8.2500000E+02
vertex   +1.5026019E+03 +1.0429825E+03 +0.0000000E+00
vertex   +1.4318912E+03 +9.7227182E+02 +0.0000000E+00
endloop
endfacet
facet normal +7.0710678E-01 -7.0710678E-01 +0.0000000E+00
outer loop      
vertex   +1.4318912E+03 +9.7227182E+02 +0.0000000E+00
vertex   +1.4318912E+03 +9.7227182E+02 -8.2500000E+02
vertex   +1.5026019E+03 +1.0429825E+03 -8.2500000E+02
endloop
endfacet
facet normal +7.0710678E-01 -7.0710678E-01 -5.6398678E-30
outer loop      
vertex   +1.4318912E+03 +9.7227182E+02 -1.6500000E+03
vertex   +1.5026019E+03 +1.0429825E+03 -1.6500000E+03
vertex   +1.5026019E+03 +1.0429825E+03 -8.2500000E+02
endloop
endfacet
facet normal +7.0710678E-01 -7.0710678E-01 -9.7440889E-17
outer loop      
vertex   +1.5026019E+03 +1.0429825E+03 -8.2500000E+02
vertex   +1.4318912E+03 +9.7227182E+02 -8.2500000E+02
vertex   +1.4318912E+03 +9.7227182E+02 -1.6500000E+03
endloop
endfacet
facet normal +7.0710678E-01 -7.0710678E-01 +0.0000000E+00
outer loop      
vertex   +1.5026019E+03 +1.0429825E+03 +8.2500000E+02
vertex   +1.5026019E+03 +1.0429825E+03 +1.6500000E+03
vertex   +1.4318912E+03 +9.7227182E+02 +1.6500000E+03
endloop
endfacet
facet normal +0.0000000E+00 +0.0000000E+00 +1.0000000E+00
outer loop      
vertex   +1.0429825E+03 +1.5026019E+03 +1.6500000E+03
vertex   +9.7227182E+02 +1.4318912E+03 +1.6500000E+03
vertex   +1.4318912E+03 +9.7227182E+02 +1.6500000E+03
endloop
endfacet
facet normal +0.0000000E+00 +0.0000000E+00 +1.0000000E+00
outer loop      
vertex   +1.4318912E+03 +9.7227182E+02 +1.6500000E+03
vertex   +1.5026019E+03 +1.0429825E+03 +1.6500000E+03
vertex   +1.0429825E+03 +1.5026019E+03 +1.6500000E+03
endloop
endfacet
facet normal +0.0000000E+00 +0.0000000E+00 -1.0000000E+00
outer loop      
vertex   +1.0429825E+03 +1.5026019E+03 -1.6500000E+03
vertex   +1.5026019E+03 +1.0429825E+03 -1.6500000E+03
vertex   +1.4318912E+03 +9.7227182E+02 -1.6500000E+03
endloop
endfacet
facet normal +0.0000000E+00 +0.0000000E+00 -1.0000000E-00
outer loop      
vertex   +1.4318912E+03 +9.7227182E+02 -1.6500000E+03
vertex   +9.7227182E+02 +1.4318912E+03 -1.6500000E+03
vertex   +1.0429825E+03 +1.5026019E+03 -1.6500000E+03
endloop
endfacet
endsolid
