solid
facet normal +1.0000000E+00 -3.8478621E-15 +0.0000000E+00
outer loop
vertex   +1.8000000E+03 -3.2500000E+02 +1.6500000E+03
vertex   +1.8000000E+03 -3.2500000E+02 +8.2500000E+02
vertex   +1.8000000E+03 +3.2500000E+02 +8.2500000E+02
endloop
endfacet
facet normal +1.0000000E+00 -3.8478621E-15 +0.0000000E+00
outer loop
vertex   +1.8000000E+03 +3.2500000E+02 +0.0000000E+00
vertex   +1.8000000E+03 +3.2500000E+02 +8.2500000E+02
vertex   +1.8000000E+03 -3.2500000E+02 +8.2500000E+02
endloop
endfacet
facet normal +1.0000000E+00 -3.8478621E-15 +0.0000000E+00
outer loop
vertex   +1.8000000E+03 -3.2500000E+02 +8.2500000E+02
vertex   +1.8000000E+03 -3.2500000E+02 +0.0000000E+00
vertex   +1.8000000E+03 +3.2500000E+02 +0.0000000E+00
endloop
endfacet
facet normal +1.0000000E+00 -3.8478621E-15 +2.7560445E-16
outer loop
vertex   +1.8000000E+03 +3.2500000E+02 -8.2500000E+02
vertex   +1.8000000E+03 +3.2500000E+02 +0.0000000E+00
vertex   +1.8000000E+03 -3.2500000E+02 +0.0000000E+00
endloop
endfacet
facet normal +1.0000000E+00 -3.8478621E-15 +2.7560445E-16
outer loop
vertex   +1.8000000E+03 -3.2500000E+02 +0.0000000E+00
vertex   +1.8000000E+03 -3.2500000E+02 -8.2500000E+02
vertex   +1.8000000E+03 +3.2500000E+02 -8.2500000E+02
endloop
endfacet
facet normal +1.0000000E+00 -3.8478621E-15 +0.0000000E+00
outer loop
vertex   +1.8000000E+03 +3.2500000E+02 -1.6500000E+03
vertex   +1.8000000E+03 +3.2500000E+02 -8.2500000E+02
vertex   +1.8000000E+03 -3.2500000E+02 -8.2500000E+02
endloop
endfacet
facet normal +1.0000000E+00 -3.8478621E-15 +0.0000000E+00
outer loop
vertex   +1.8000000E+03 -3.2500000E+02 -8.2500000E+02
vertex   +1.8000000E+03 -3.2500000E+02 -1.6500000E+03
vertex   +1.8000000E+03 +3.2500000E+02 -1.6500000E+03
endloop
endfacet
facet normal +1.0000000E+00 -3.8478621E-15 +0.0000000E+00
outer loop
vertex   +1.8000000E+03 +3.2500000E+02 +8.2500000E+02
vertex   +1.8000000E+03 +3.2500000E+02 +1.6500000E+03
vertex   +1.8000000E+03 -3.2500000E+02 +1.6500000E+03
endloop
endfacet
facet normal +2.2737367E-15 +1.0000000E+00 +0.0000000E+00
outer loop
vertex   +1.8000000E+03 +3.2500000E+02 +1.6500000E+03
vertex   +1.8000000E+03 +3.2500000E+02 +8.2500000E+02
vertex   +1.7000000E+03 +3.2500000E+02 +8.2500000E+02
endloop
endfacet
facet normal +2.2737367E-15 +1.0000000E+00 +0.0000000E+00
outer loop
vertex   +1.7000000E+03 +3.2500000E+02 +0.0000000E+00
vertex   +1.7000000E+03 +3.2500000E+02 +8.2500000E+02
vertex   +1.8000000E+03 +3.2500000E+02 +8.2500000E+02
endloop
endfacet
facet normal +2.2737367E-15 +1.0000000E+00 +0.0000000E+00
outer loop
vertex   +1.8000000E+03 +3.2500000E+02 +8.2500000E+02
vertex   +1.8000000E+03 +3.2500000E+02 +0.0000000E+00
vertex   +1.7000000E+03 +3.2500000E+02 +0.0000000E+00
endloop
endfacet
facet normal +2.2737367E-15 +1.0000000E+00 +0.0000000E+00
outer loop
vertex   +1.7000000E+03 +3.2500000E+02 -8.2500000E+02
vertex   +1.7000000E+03 +3.2500000E+02 +0.0000000E+00
vertex   +1.8000000E+03 +3.2500000E+02 +0.0000000E+00
endloop
endfacet
facet normal +2.2737367E-15 +1.0000000E+00 +0.0000000E+00
outer loop
vertex   +1.8000000E+03 +3.2500000E+02 +0.0000000E+00
vertex   +1.8000000E+03 +3.2500000E+02 -8.2500000E+02
vertex   +1.7000000E+03 +3.2500000E+02 -8.2500000E+02
endloop
endfacet
facet normal +2.2737367E-15 +1.0000000E-00 +0.0000000E+00
outer loop
vertex   +1.7000000E+03 +3.2500000E+02 -1.6500000E+03
vertex   +1.7000000E+03 +3.2500000E+02 -8.2500000E+02
vertex   +1.8000000E+03 +3.2500000E+02 -8.2500000E+02
endloop
endfacet
facet normal +2.2737367E-15 +1.0000000E+00 +0.0000000E+00
outer loop
vertex   +1.8000000E+03 +3.2500000E+02 -8.2500000E+02
vertex   +1.8000000E+03 +3.2500000E+02 -1.6500000E+03
vertex   +1.7000000E+03 +3.2500000E+02 -1.6500000E+03
endloop
endfacet
facet normal +2.2737367E-15 +1.0000000E+00 +0.0000000E+00
outer loop
vertex   +1.7000000E+03 +3.2500000E+02 +8.2500000E+02
vertex   +1.7000000E+03 +3.2500000E+02 +1.6500000E+03
vertex   +1.8000000E+03 +3.2500000E+02 +1.6500000E+03
endloop
endfacet
facet normal -1.0000000E+00 +3.4980565E-15 +0.0000000E+00
outer loop
vertex   +1.7000000E+03 +3.2500000E+02 +1.6500000E+03
vertex   +1.7000000E+03 +3.2500000E+02 +8.2500000E+02
vertex   +1.7000000E+03 -3.2500000E+02 +8.2500000E+02
endloop
endfacet
facet normal -1.0000000E+00 +3.4980565E-15 +0.0000000E+00
outer loop
vertex   +1.7000000E+03 -3.2500000E+02 +0.0000000E+00
vertex   +1.7000000E+03 -3.2500000E+02 +8.2500000E+02
vertex   +1.7000000E+03 +3.2500000E+02 +8.2500000E+02
endloop
endfacet
facet normal -1.0000000E+00 +3.4980565E-15 +0.0000000E+00
outer loop
vertex   +1.7000000E+03 +3.2500000E+02 +8.2500000E+02
vertex   +1.7000000E+03 +3.2500000E+02 +0.0000000E+00
vertex   +1.7000000E+03 -3.2500000E+02 +0.0000000E+00
endloop
endfacet
facet normal -1.0000000E+00 +3.4980565E-15 -2.7560445E-16
outer loop
vertex   +1.7000000E+03 -3.2500000E+02 -8.2500000E+02
vertex   +1.7000000E+03 -3.2500000E+02 +0.0000000E+00
vertex   +1.7000000E+03 +3.2500000E+02 +0.0000000E+00
endloop
endfacet
facet normal -1.0000000E+00 +3.4980565E-15 -2.7560445E-16
outer loop
vertex   +1.7000000E+03 +3.2500000E+02 +0.0000000E+00
vertex   +1.7000000E+03 +3.2500000E+02 -8.2500000E+02
vertex   +1.7000000E+03 -3.2500000E+02 -8.2500000E+02
endloop
endfacet
facet normal -1.0000000E+00 +3.4980565E-15 +0.0000000E+00
outer loop
vertex   +1.7000000E+03 -3.2500000E+02 -1.6500000E+03
vertex   +1.7000000E+03 -3.2500000E+02 -8.2500000E+02
vertex   +1.7000000E+03 +3.2500000E+02 -8.2500000E+02
endloop
endfacet
facet normal -1.0000000E+00 +3.4980565E-15 +0.0000000E+00
outer loop
vertex   +1.7000000E+03 +3.2500000E+02 -8.2500000E+02
vertex   +1.7000000E+03 +3.2500000E+02 -1.6500000E+03
vertex   +1.7000000E+03 -3.2500000E+02 -1.6500000E+03
endloop
endfacet
facet normal -1.0000000E+00 +3.4980565E-15 +0.0000000E+00
outer loop
vertex   +1.7000000E+03 -3.2500000E+02 +8.2500000E+02
vertex   +1.7000000E+03 -3.2500000E+02 +1.6500000E+03
vertex   +1.7000000E+03 +3.2500000E+02 +1.6500000E+03
endloop
endfacet
facet normal -1.2505552E-14 -1.0000000E+00 -6.8901113E-17
outer loop
vertex   +1.7000000E+03 -3.2500000E+02 +1.6500000E+03
vertex   +1.7000000E+03 -3.2500000E+02 +8.2500000E+02
vertex   +1.8000000E+03 -3.2500000E+02 +8.2500000E+02
endloop
endfacet
facet normal -1.2505552E-14 -1.0000000E-00 +0.0000000E+00
outer loop
vertex   +1.8000000E+03 -3.2500000E+02 +0.0000000E+00
vertex   +1.8000000E+03 -3.2500000E+02 +8.2500000E+02
vertex   +1.7000000E+03 -3.2500000E+02 +8.2500000E+02
endloop
endfacet
facet normal -1.2505552E-14 -1.0000000E-00 +0.0000000E+00
outer loop
vertex   +1.7000000E+03 -3.2500000E+02 +8.2500000E+02
vertex   +1.7000000E+03 -3.2500000E+02 +0.0000000E+00
vertex   +1.8000000E+03 -3.2500000E+02 +0.0000000E+00
endloop
endfacet
facet normal -1.2505552E-14 -1.0000000E+00 -3.4465858E-30
outer loop
vertex   +1.8000000E+03 -3.2500000E+02 +0.0000000E+00
vertex   +1.7000000E+03 -3.2500000E+02 +0.0000000E+00
vertex   +1.7000000E+03 -3.2500000E+02 -8.2500000E+02
endloop
endfacet
facet normal -1.2505552E-14 -1.0000000E+00 -3.4465858E-30
outer loop
vertex   +1.7000000E+03 -3.2500000E+02 -8.2500000E+02
vertex   +1.8000000E+03 -3.2500000E+02 -8.2500000E+02
vertex   +1.8000000E+03 -3.2500000E+02 +0.0000000E+00
endloop
endfacet
facet normal -1.2505552E-14 -1.0000000E+00 +0.0000000E+00
outer loop
vertex   +1.8000000E+03 -3.2500000E+02 -1.6500000E+03
vertex   +1.8000000E+03 -3.2500000E+02 -8.2500000E+02
vertex   +1.7000000E+03 -3.2500000E+02 -8.2500000E+02
endloop
endfacet
facet normal -1.1937117E-14 -1.0000000E+00 +6.8901113E-17
outer loop
vertex   +1.7000000E+03 -3.2500000E+02 -8.2500000E+02
vertex   +1.7000000E+03 -3.2500000E+02 -1.6500000E+03
vertex   +1.8000000E+03 -3.2500000E+02 -1.6500000E+03
endloop
endfacet
facet normal -1.1937117E-14 -1.0000000E+00 +0.0000000E+00
outer loop
vertex   +1.8000000E+03 -3.2500000E+02 +8.2500000E+02
vertex   +1.8000000E+03 -3.2500000E+02 +1.6500000E+03
vertex   +1.7000000E+03 -3.2500000E+02 +1.6500000E+03
endloop
endfacet
facet normal +0.0000000E+00 +0.0000000E+00 +1.0000000E+00
outer loop
vertex   +1.8000000E+03 +3.2500000E+02 +1.6500000E+03
vertex   +1.7000000E+03 +3.2500000E+02 +1.6500000E+03
vertex   +1.7000000E+03 -3.2500000E+02 +1.6500000E+03
endloop
endfacet
facet normal +0.0000000E+00 +0.0000000E+00 +1.0000000E-00
outer loop
vertex   +1.7000000E+03 -3.2500000E+02 +1.6500000E+03
vertex   +1.8000000E+03 -3.2500000E+02 +1.6500000E+03
vertex   +1.8000000E+03 +3.2500000E+02 +1.6500000E+03
endloop
endfacet
facet normal +0.0000000E+00 +0.0000000E+00 -1.0000000E-00
outer loop
vertex   +1.8000000E+03 +3.2500000E+02 -1.6500000E+03
vertex   +1.8000000E+03 -3.2500000E+02 -1.6500000E+03
vertex   +1.7000000E+03 -3.2500000E+02 -1.6500000E+03
endloop
endfacet
facet normal +0.0000000E+00 +0.0000000E+00 -1.0000000E+00
outer loop
vertex   +1.7000000E+03 -3.2500000E+02 -1.6500000E+03
vertex   +1.7000000E+03 +3.2500000E+02 -1.6500000E+03
vertex   +1.8000000E+03 +3.2500000E+02 -1.6500000E+03
endloop
endfacet
endsolid
