solid
facet normal +8.3388582E-01 +5.5193698E-01 +0.0000000E+00
outer loop      
vertex   +5.6564102E+02 -8.5459036E+02 +1.5500000E+03
vertex   +5.6564102E+02 -8.5459036E+02 +1.6500000E+03
vertex   +9.5585461E+02 -1.4441387E+03 +1.6500000E+03
endloop
endfacet
facet normal +8.3388582E-01 +5.5193698E-01 +0.0000000E+00
outer loop      
vertex   +9.5585461E+02 -1.4441387E+03 +1.6500000E+03
vertex   +9.5585461E+02 -1.4441387E+03 +1.5500000E+03
vertex   +5.6564102E+02 -8.5459036E+02 +1.5500000E+03
endloop
endfacet
facet normal -3.8268343E-01 +9.2387953E-01 +0.0000000E+00
outer loop      
vertex   +2.0431803E+02 -1.0042552E+03 +1.5500000E+03
vertex   +2.0431803E+02 -1.0042552E+03 +1.6500000E+03
vertex   +5.6564102E+02 -8.5459036E+02 +1.6500000E+03
endloop
endfacet
facet normal -3.8268343E-01 +9.2387953E-01 +0.0000000E+00
outer loop      
vertex   +5.6564102E+02 -8.5459036E+02 +1.6500000E+03
vertex   +5.6564102E+02 -8.5459036E+02 +1.5500000E+03
vertex   +2.0431803E+02 -1.0042552E+03 +1.5500000E+03
endloop
endfacet
facet normal -9.7992470E-01 -1.9936793E-01 +0.0000000E+00
outer loop      
vertex   +3.4526905E+02 -1.6970516E+03 +1.6500000E+03
vertex   +2.0431803E+02 -1.0042552E+03 +1.6500000E+03
vertex   +2.0431803E+02 -1.0042552E+03 +1.5500000E+03
endloop
endfacet
facet normal -9.7992470E-01 -1.9936793E-01 +0.0000000E+00
outer loop      
vertex   +2.0431803E+02 -1.0042552E+03 +1.5500000E+03
vertex   +3.4526905E+02 -1.6970516E+03 +1.5500000E+03
vertex   +3.4526905E+02 -1.6970516E+03 +1.6500000E+03
endloop
endfacet
facet normal +3.8268343E-01 -9.2387953E-01 +0.0000000E+00
outer loop      
vertex   +9.5585461E+02 -1.4441387E+03 +1.5500000E+03
vertex   +9.5585461E+02 -1.4441387E+03 +1.6500000E+03
vertex   +3.4526905E+02 -1.6970516E+03 +1.6500000E+03
endloop
endfacet
facet normal +3.8268343E-01 -9.2387953E-01 +0.0000000E+00
outer loop      
vertex   +3.4526905E+02 -1.6970516E+03 +1.6500000E+03
vertex   +3.4526905E+02 -1.6970516E+03 +1.5500000E+03
vertex   +9.5585461E+02 -1.4441387E+03 +1.5500000E+03
endloop
endfacet
facet normal +5.8037148E-16 +1.1807791E-16 -1.0000000E+00
outer loop      
vertex   +3.4526905E+02 -1.6970516E+03 +1.5500000E+03
vertex   +2.0431803E+02 -1.0042552E+03 +1.5500000E+03
vertex   +5.6564102E+02 -8.5459036E+02 +1.5500000E+03
endloop
endfacet
facet normal +2.9225975E-16 +1.9344250E-16 -1.0000000E+00
outer loop      
vertex   +5.6564102E+02 -8.5459036E+02 +1.5500000E+03
vertex   +9.5585461E+02 -1.4441387E+03 +1.5500000E+03
vertex   +3.4526905E+02 -1.6970516E+03 +1.5500000E+03
endloop
endfacet
facet normal -7.0989722E-16 -8.4196423E-17 +1.0000000E+00
outer loop      
vertex   +3.4526905E+02 -1.6970516E+03 +1.6500000E+03
vertex   +9.5585461E+02 -1.4441387E+03 +1.6500000E+03
vertex   +5.6564102E+02 -8.5459036E+02 +1.6500000E+03
endloop
endfacet
facet normal +1.2537772E-16 -3.0268859E-16 +1.0000000E+00
outer loop      
vertex   +5.6564102E+02 -8.5459036E+02 +1.6500000E+03
vertex   +2.0431803E+02 -1.0042552E+03 +1.6500000E+03
vertex   +3.4526905E+02 -1.6970516E+03 +1.6500000E+03
endloop
endfacet
endsolid
