solid
facet normal -9.8162718E-01 -1.9080899E-01 +0.0000000E+00
outer loop
vertex   -1.9554659E+02 +1.0060000E+03 +1.5500000E+03
vertex   -1.9554659E+02 +1.0060000E+03 +1.6500000E+03
vertex   -3.3044652E+02 +1.7000000E+03 +1.6500000E+03
endloop
endfacet
facet normal -9.8162718E-01 -1.9080899E-01 +0.0000000E+00
outer loop
vertex   -3.3044652E+02 +1.7000000E+03 +1.6500000E+03
vertex   -3.3044652E+02 +1.7000000E+03 +1.5500000E+03
vertex   -1.9554659E+02 +1.0060000E+03 +1.5500000E+03
endloop
endfacet
facet normal -8.1393171E-15 -1.0000000E+00 +0.0000000E+00
outer loop
vertex   +1.9554659E+02 +1.0060000E+03 +1.5500000E+03
vertex   +1.9554659E+02 +1.0060000E+03 +1.6500000E+03
vertex   -1.9554659E+02 +1.0060000E+03 +1.6500000E+03
endloop
endfacet
facet normal -8.1393171E-15 -1.0000000E+00 +0.0000000E+00
outer loop
vertex   -1.9554659E+02 +1.0060000E+03 +1.6500000E+03
vertex   -1.9554659E+02 +1.0060000E+03 +1.5500000E+03
vertex   +1.9554659E+02 +1.0060000E+03 +1.5500000E+03
endloop
endfacet
facet normal +9.8162718E-01 -1.9080899E-01 +0.0000000E+00
outer loop
vertex   +3.3044652E+02 +1.7000000E+03 +1.6500000E+03
vertex   +1.9554659E+02 +1.0060000E+03 +1.6500000E+03
vertex   +1.9554659E+02 +1.0060000E+03 +1.5500000E+03
endloop
endfacet
facet normal +9.8162718E-01 -1.9080899E-01 +0.0000000E+00
outer loop
vertex   +1.9554659E+02 +1.0060000E+03 +1.5500000E+03
vertex   +3.3044652E+02 +1.7000000E+03 +1.5500000E+03
vertex   +3.3044652E+02 +1.7000000E+03 +1.6500000E+03
endloop
endfacet
facet normal +6.8808009E-15 +1.0000000E+00 +0.0000000E+00
outer loop
vertex   -3.3044652E+02 +1.7000000E+03 +1.5500000E+03
vertex   -3.3044652E+02 +1.7000000E+03 +1.6500000E+03
vertex   +3.3044652E+02 +1.7000000E+03 +1.6500000E+03
endloop
endfacet
facet normal +6.8808009E-15 +1.0000000E+00 +0.0000000E+00
outer loop
vertex   +3.3044652E+02 +1.7000000E+03 +1.6500000E+03
vertex   +3.3044652E+02 +1.7000000E+03 +1.5500000E+03
vertex   -3.3044652E+02 +1.7000000E+03 +1.5500000E+03
endloop
endfacet
facet normal +2.6666663E-30 +3.2762777E-16 -1.0000000E+00
outer loop
vertex   +3.3044652E+02 +1.7000000E+03 +1.5500000E+03
vertex   +1.9554659E+02 +1.0060000E+03 +1.5500000E+03
vertex   -1.9554659E+02 +1.0060000E+03 +1.5500000E+03
endloop
endfacet
facet normal +3.4404004E-16 +6.6874610E-17 -1.0000000E+00
outer loop
vertex   -1.9554659E+02 +1.0060000E+03 +1.5500000E+03
vertex   -3.3044652E+02 +1.7000000E+03 +1.5500000E+03
vertex   +3.3044652E+02 +1.7000000E+03 +1.5500000E+03
endloop
endfacet
facet normal -3.4404004E-16 -6.6874610E-17 +1.0000000E+00
outer loop
vertex   +3.3044652E+02 +1.7000000E+03 +1.6500000E+03
vertex   -3.3044652E+02 +1.7000000E+03 +1.6500000E+03
vertex   -1.9554659E+02 +1.0060000E+03 +1.6500000E+03
endloop
endfacet
facet normal -5.8137979E-16 +1.1300878E-16 +1.0000000E+00
outer loop
vertex   -1.9554659E+02 +1.0060000E+03 +1.6500000E+03
vertex   +1.9554659E+02 +1.0060000E+03 +1.6500000E+03
vertex   +3.3044652E+02 +1.7000000E+03 +1.6500000E+03
endloop
endfacet
endsolid
