solid
facet normal +5.5919290E-01 +8.2903757E-01 +6.3572872E-16
outer loop
vertex   +8.4962174E+02 -5.7307710E+02 +1.5500000E+03
vertex   +8.4962174E+02 -5.7307710E+02 +1.6500000E+03
vertex   +1.4357425E+03 -9.6842054E+02 +1.6500000E+03
endloop
endfacet
facet normal +5.5919290E-01 +8.2903757E-01 +1.2714574E-15
outer loop
vertex   +1.4357425E+03 -9.6842054E+02 +1.6500000E+03
vertex   +1.4357425E+03 -9.6842054E+02 +1.5500000E+03
vertex   +8.4962174E+02 -5.7307710E+02 +1.5500000E+03
endloop
endfacet
facet normal -7.0710678E-01 +7.0710678E-01 -8.0388733E-16
outer loop
vertex   +5.7307710E+02 -8.4962174E+02 +1.5500000E+03
vertex   +5.7307710E+02 -8.4962174E+02 +1.6500000E+03
vertex   +8.4962174E+02 -5.7307710E+02 +1.6500000E+03
endloop
endfacet
facet normal -7.0710678E-01 +7.0710678E-01 -8.0388733E-16
outer loop
vertex   +8.4962174E+02 -5.7307710E+02 +1.6500000E+03
vertex   +8.4962174E+02 -5.7307710E+02 +1.5500000E+03
vertex   +5.7307710E+02 -8.4962174E+02 +1.5500000E+03
endloop
endfacet
facet normal -8.2903757E-01 -5.5919290E-01 -9.4250659E-16
outer loop
vertex   +9.6842054E+02 -1.4357425E+03 +1.6500000E+03
vertex   +5.7307710E+02 -8.4962174E+02 +1.6500000E+03
vertex   +5.7307710E+02 -8.4962174E+02 +1.5500000E+03
endloop
endfacet
facet normal -8.2903757E-01 -5.5919290E-01 +0.0000000E+00
outer loop
vertex   +5.7307710E+02 -8.4962174E+02 +1.5500000E+03
vertex   +9.6842054E+02 -1.4357425E+03 +1.5500000E+03
vertex   +9.6842054E+02 -1.4357425E+03 +1.6500000E+03
endloop
endfacet
facet normal +7.0710678E-01 -7.0710678E-01 +1.6077746E-15
outer loop
vertex   +1.4357425E+03 -9.6842054E+02 +1.5500000E+03
vertex   +1.4357425E+03 -9.6842054E+02 +1.6500000E+03
vertex   +9.6842054E+02 -1.4357425E+03 +1.6500000E+03
endloop
endfacet
facet normal +7.0710678E-01 -7.0710678E-01 +0.0000000E+00
outer loop
vertex   +9.6842054E+02 -1.4357425E+03 +1.6500000E+03
vertex   +9.6842054E+02 -1.4357425E+03 +1.5500000E+03
vertex   +1.4357425E+03 -9.6842054E+02 +1.5500000E+03
endloop
endfacet
facet normal +4.9100687E-16 +3.3118831E-16 -1.0000000E+00
outer loop
vertex   +9.6842054E+02 -1.4357425E+03 +1.5500000E+03
vertex   +5.7307710E+02 -8.4962174E+02 +1.5500000E+03
vertex   +8.4962174E+02 -5.7307710E+02 +1.5500000E+03
endloop
endfacet
facet normal +1.9598555E-16 +2.9056053E-16 -1.0000000E+00
outer loop
vertex   +8.4962174E+02 -5.7307710E+02 +1.5500000E+03
vertex   +1.4357425E+03 -9.6842054E+02 +1.5500000E+03
vertex   +9.6842054E+02 -1.4357425E+03 +1.5500000E+03
endloop
endfacet
facet normal -4.2765337E-16 -5.8892718E-17 +1.0000000E-00
outer loop
vertex   +9.6842054E+02 -1.4357425E+03 +1.6500000E+03
vertex   +1.4357425E+03 -9.6842054E+02 +1.6500000E+03
vertex   +8.4962174E+02 -5.7307710E+02 +1.6500000E+03
endloop
endfacet
facet normal -7.2267469E-16 -9.9520498E-17 +1.0000000E+00
outer loop
vertex   +8.4962174E+02 -5.7307710E+02 +1.6500000E+03
vertex   +5.7307710E+02 -8.4962174E+02 +1.6500000E+03
vertex   +9.6842054E+02 -1.4357425E+03 +1.6500000E+03
endloop
endfacet
endsolid
