solid
facet normal +1.9080899E-01 -9.8162718E-01 +0.0000000E+00
outer loop      
vertex   -1.1650131E+03 -2.2645562E+02 -1.6500000E+03
vertex   -1.1650131E+03 -2.2645562E+02 -1.5500000E+03
vertex   -1.7000000E+03 -3.3044652E+02 -1.5500000E+03
endloop
endfacet
facet normal +1.9080899E-01 -9.8162718E-01 +0.0000000E+00
outer loop      
vertex   -1.1650131E+03 -2.2645562E+02 -1.5500000E+03
vertex   -1.1650131E+03 -2.2645562E+02 -1.6500000E+03
vertex   -6.3002637E+02 -1.2246472E+02 -1.6500000E+03
endloop
endfacet
facet normal +1.9080899E-01 -9.8162718E-01 -1.3949761E-16
outer loop      
vertex   -6.3002637E+02 -1.2246472E+02 -1.6500000E+03
vertex   -6.3002637E+02 -1.2246472E+02 -1.5500000E+03
vertex   -1.1650131E+03 -2.2645562E+02 -1.5500000E+03
endloop
endfacet
facet normal +1.9080899E-01 -9.8162718E-01 +0.0000000E+00
outer loop      
vertex   -1.7000000E+03 -3.3044652E+02 -1.5500000E+03
vertex   -1.7000000E+03 -3.3044652E+02 -1.6500000E+03
vertex   -1.1650131E+03 -2.2645562E+02 -1.6500000E+03
endloop
endfacet
facet normal -1.0000000E+00 -5.5046407E-15 +0.0000000E+00
outer loop      
vertex   -1.7000000E+03 -3.3044652E+02 -1.6500000E+03
vertex   -1.7000000E+03 -3.3044652E+02 -1.5500000E+03
vertex   -1.7000000E+03 +3.3044652E+02 -1.5500000E+03
endloop
endfacet
facet normal -1.0000000E+00 -5.5046407E-15 +0.0000000E+00
outer loop      
vertex   -1.7000000E+03 +3.3044652E+02 -1.5500000E+03
vertex   -1.7000000E+03 +3.3044652E+02 -1.6500000E+03
vertex   -1.7000000E+03 -3.3044652E+02 -1.6500000E+03
endloop
endfacet
facet normal +1.9080899E-01 +9.8162718E-01 -4.3384942E-16
outer loop      
vertex   -6.3002637E+02 +1.2246472E+02 -1.6500000E+03
vertex   -1.1650131E+03 +2.2645562E+02 -1.6500000E+03
vertex   -1.1650131E+03 +2.2645562E+02 -1.5500000E+03
endloop
endfacet
facet normal +1.9080899E-01 +9.8162718E-01 -4.3384942E-16
outer loop      
vertex   -1.7000000E+03 +3.3044652E+02 -1.5500000E+03
vertex   -1.1650131E+03 +2.2645562E+02 -1.5500000E+03
vertex   -1.1650131E+03 +2.2645562E+02 -1.6500000E+03
endloop
endfacet
facet normal +1.9080899E-01 +9.8162718E-01 +0.0000000E+00
outer loop      
vertex   -1.1650131E+03 +2.2645562E+02 -1.6500000E+03
vertex   -1.7000000E+03 +3.3044652E+02 -1.6500000E+03
vertex   -1.7000000E+03 +3.3044652E+02 -1.5500000E+03
endloop
endfacet
facet normal +1.9080899E-01 +9.8162718E-01 +1.3949761E-16
outer loop      
vertex   -1.1650131E+03 +2.2645562E+02 -1.5500000E+03
vertex   -6.3002637E+02 +1.2246472E+02 -1.5500000E+03
vertex   -6.3002637E+02 +1.2246472E+02 -1.6500000E+03
endloop
endfacet
facet normal +1.0000000E+00 +4.1774542E-15 +0.0000000E+00
outer loop      
vertex   -6.3002637E+02 +1.2246472E+02 -1.6500000E+03
vertex   -6.3002637E+02 +1.2246472E+02 -1.5500000E+03
vertex   -6.3002637E+02 -1.2246472E+02 -1.5500000E+03
endloop
endfacet
facet normal +1.0000000E+00 +4.1774542E-15 +0.0000000E+00
outer loop      
vertex   -6.3002637E+02 -1.2246472E+02 -1.5500000E+03
vertex   -6.3002637E+02 -1.2246472E+02 -1.6500000E+03
vertex   -6.3002637E+02 +1.2246472E+02 -1.6500000E+03
endloop
endfacet
facet normal +0.0000000E+00 +0.0000000E+00 -1.0000000E+00
outer loop      
vertex   -1.7000000E+03 +3.3044652E+02 -1.6500000E+03
vertex   -1.1650131E+03 +2.2645562E+02 -1.6500000E+03
vertex   -1.1650131E+03 -2.2645562E+02 -1.6500000E+03
endloop
endfacet
facet normal +0.0000000E+00 +0.0000000E+00 -1.0000000E+00
outer loop      
vertex   -1.1650131E+03 +2.2645562E+02 -1.6500000E+03
vertex   -6.3002637E+02 +1.2246472E+02 -1.6500000E+03
vertex   -6.3002637E+02 -1.2246472E+02 -1.6500000E+03
endloop
endfacet
facet normal +0.0000000E+00 +0.0000000E+00 -1.0000000E+00
outer loop      
vertex   -6.3002637E+02 -1.2246472E+02 -1.6500000E+03
vertex   -1.1650131E+03 -2.2645562E+02 -1.6500000E+03
vertex   -1.1650131E+03 +2.2645562E+02 -1.6500000E+03
endloop
endfacet
facet normal +0.0000000E+00 +0.0000000E+00 -1.0000000E+00
outer loop      
vertex   -1.1650131E+03 -2.2645562E+02 -1.6500000E+03
vertex   -1.7000000E+03 -3.3044652E+02 -1.6500000E+03
vertex   -1.7000000E+03 +3.3044652E+02 -1.6500000E+03
endloop
endfacet
facet normal +0.0000000E+00 +0.0000000E+00 +1.0000000E+00
outer loop      
vertex   -1.1650131E+03 +2.2645562E+02 -1.5500000E+03
vertex   -1.1650131E+03 -2.2645562E+02 -1.5500000E+03
vertex   -6.3002637E+02 -1.2246472E+02 -1.5500000E+03
endloop
endfacet
facet normal -3.5813338E-16 -3.4404004E-16 +1.0000000E+00
outer loop      
vertex   -1.7000000E+03 +3.3044652E+02 -1.5500000E+03
vertex   -1.7000000E+03 -3.3044652E+02 -1.5500000E+03
vertex   -1.1650131E+03 -2.2645562E+02 -1.5500000E+03
endloop
endfacet
facet normal +0.0000000E+00 +0.0000000E+00 +1.0000000E-00
outer loop      
vertex   -1.1650131E+03 -2.2645562E+02 -1.5500000E+03
vertex   -1.1650131E+03 +2.2645562E+02 -1.5500000E+03
vertex   -1.7000000E+03 +3.3044652E+02 -1.5500000E+03
endloop
endfacet
facet normal +0.0000000E+00 +0.0000000E+00 +1.0000000E+00
outer loop      
vertex   -6.3002637E+02 -1.2246472E+02 -1.5500000E+03
vertex   -6.3002637E+02 +1.2246472E+02 -1.5500000E+03
vertex   -1.1650131E+03 +2.2645562E+02 -1.5500000E+03
endloop
endfacet
endsolid
