solid
facet normal -9.8162718E-01 -1.9080899E-01 +3.0970840E-16
outer loop
vertex   -2.2645562E+02 +1.1650131E+03 -1.6500000E+03
vertex   -2.2645562E+02 +1.1650131E+03 -1.5500000E+03
vertex   -3.3044652E+02 +1.7000000E+03 -1.5500000E+03
endloop
endfacet
facet normal -9.8162718E-01 -1.9080899E-01 +3.0970840E-16
outer loop
vertex   -2.2645562E+02 +1.1650131E+03 -1.5500000E+03
vertex   -2.2645562E+02 +1.1650131E+03 -1.6500000E+03
vertex   -1.2246472E+02 +6.3002637E+02 -1.6500000E+03
endloop
endfacet
facet normal -9.8162718E-01 -1.9080899E-01 -2.1692471E-16
outer loop
vertex   -1.2246472E+02 +6.3002637E+02 -1.6500000E+03
vertex   -1.2246472E+02 +6.3002637E+02 -1.5500000E+03
vertex   -2.2645562E+02 +1.1650131E+03 -1.5500000E+03
endloop
endfacet
facet normal -9.8162718E-01 -1.9080899E-01 +0.0000000E+00
outer loop
vertex   -3.3044652E+02 +1.7000000E+03 -1.5500000E+03
vertex   -3.3044652E+02 +1.7000000E+03 -1.6500000E+03
vertex   -2.2645562E+02 +1.1650131E+03 -1.6500000E+03
endloop
endfacet
facet normal -1.7202002E-15 +1.0000000E+00 +0.0000000E+00
outer loop
vertex   -3.3044652E+02 +1.7000000E+03 -1.6500000E+03
vertex   -3.3044652E+02 +1.7000000E+03 -1.5500000E+03
vertex   +3.3044652E+02 +1.7000000E+03 -1.5500000E+03
endloop
endfacet
facet normal -1.7202002E-15 +1.0000000E+00 +0.0000000E+00
outer loop
vertex   +3.3044652E+02 +1.7000000E+03 -1.5500000E+03
vertex   +3.3044652E+02 +1.7000000E+03 -1.6500000E+03
vertex   -3.3044652E+02 +1.7000000E+03 -1.6500000E+03
endloop
endfacet
facet normal +9.8162718E-01 -1.9080899E-01 -9.9183987E-16
outer loop
vertex   +1.2246472E+02 +6.3002637E+02 -1.6500000E+03
vertex   +2.2645562E+02 +1.1650131E+03 -1.6500000E+03
vertex   +2.2645562E+02 +1.1650131E+03 -1.5500000E+03
endloop
endfacet
facet normal +9.8162718E-01 -1.9080899E-01 -9.9183987E-16
outer loop
vertex   +3.3044652E+02 +1.7000000E+03 -1.5500000E+03
vertex   +2.2645562E+02 +1.1650131E+03 -1.5500000E+03
vertex   +2.2645562E+02 +1.1650131E+03 -1.6500000E+03
endloop
endfacet
facet normal +9.8162718E-01 -1.9080899E-01 +0.0000000E+00
outer loop
vertex   +2.2645562E+02 +1.1650131E+03 -1.6500000E+03
vertex   +3.3044652E+02 +1.7000000E+03 -1.6500000E+03
vertex   +3.3044652E+02 +1.7000000E+03 -1.5500000E+03
endloop
endfacet
facet normal +9.8162718E-01 -1.9080899E-01 -2.1692471E-16
outer loop
vertex   +2.2645562E+02 +1.1650131E+03 -1.5500000E+03
vertex   +1.2246472E+02 +6.3002637E+02 -1.5500000E+03
vertex   +1.2246472E+02 +6.3002637E+02 -1.6500000E+03
endloop
endfacet
facet normal +9.2832317E-16 -1.0000000E+00 -1.1368683E-15
outer loop
vertex   +1.2246472E+02 +6.3002637E+02 -1.6500000E+03
vertex   +1.2246472E+02 +6.3002637E+02 -1.5500000E+03
vertex   -1.2246472E+02 +6.3002637E+02 -1.5500000E+03
endloop
endfacet
facet normal +9.2832317E-16 -1.0000000E+00 -1.1368683E-15
outer loop
vertex   -1.2246472E+02 +6.3002637E+02 -1.5500000E+03
vertex   -1.2246472E+02 +6.3002637E+02 -1.6500000E+03
vertex   +1.2246472E+02 +6.3002637E+02 -1.6500000E+03
endloop
endfacet
facet normal +0.0000000E+00 +0.0000000E+00 -1.0000000E+00
outer loop
vertex   +3.3044652E+02 +1.7000000E+03 -1.6500000E+03
vertex   +2.2645562E+02 +1.1650131E+03 -1.6500000E+03
vertex   -2.2645562E+02 +1.1650131E+03 -1.6500000E+03
endloop
endfacet
facet normal +0.0000000E+00 +4.2500799E-16 -1.0000000E+00
outer loop
vertex   +2.2645562E+02 +1.1650131E+03 -1.6500000E+03
vertex   +1.2246472E+02 +6.3002637E+02 -1.6500000E+03
vertex   -1.2246472E+02 +6.3002637E+02 -1.6500000E+03
endloop
endfacet
facet normal +0.0000000E+00 +4.2500799E-16 -1.0000000E+00
outer loop
vertex   -1.2246472E+02 +6.3002637E+02 -1.6500000E+03
vertex   -2.2645562E+02 +1.1650131E+03 -1.6500000E+03
vertex   +2.2645562E+02 +1.1650131E+03 -1.6500000E+03
endloop
endfacet
facet normal +0.0000000E+00 +0.0000000E+00 -1.0000000E+00
outer loop
vertex   -2.2645562E+02 +1.1650131E+03 -1.6500000E+03
vertex   -3.3044652E+02 +1.7000000E+03 -1.6500000E+03
vertex   +3.3044652E+02 +1.7000000E+03 -1.6500000E+03
endloop
endfacet
facet normal +0.0000000E+00 +0.0000000E+00 +1.0000000E-00
outer loop
vertex   +2.2645562E+02 +1.1650131E+03 -1.5500000E+03
vertex   -2.2645562E+02 +1.1650131E+03 -1.5500000E+03
vertex   -1.2246472E+02 +6.3002637E+02 -1.5500000E+03
endloop
endfacet
facet normal +0.0000000E+00 +0.0000000E+00 +1.0000000E+00
outer loop
vertex   +3.3044652E+02 +1.7000000E+03 -1.5500000E+03
vertex   -3.3044652E+02 +1.7000000E+03 -1.5500000E+03
vertex   -2.2645562E+02 +1.1650131E+03 -1.5500000E+03
endloop
endfacet
facet normal +0.0000000E+00 +0.0000000E+00 +1.0000000E+00
outer loop
vertex   -2.2645562E+02 +1.1650131E+03 -1.5500000E+03
vertex   +2.2645562E+02 +1.1650131E+03 -1.5500000E+03
vertex   +3.3044652E+02 +1.7000000E+03 -1.5500000E+03
endloop
endfacet
facet normal +0.0000000E+00 +0.0000000E+00 +1.0000000E+00
outer loop
vertex   -1.2246472E+02 +6.3002637E+02 -1.5500000E+03
vertex   +1.2246472E+02 +6.3002637E+02 -1.5500000E+03
vertex   +2.2645562E+02 +1.1650131E+03 -1.5500000E+03
endloop
endfacet
endsolid
