solid
facet normal +8.3388582E-01 +5.5193698E-01 -2.2165755E-15
outer loop
vertex   +6.5504895E+02 -9.8967102E+02 -1.6500000E+03
vertex   +6.5504895E+02 -9.8967102E+02 -1.5500000E+03
vertex   +9.5585461E+02 -1.4441387E+03 -1.5500000E+03
endloop
endfacet
facet normal +8.3388582E-01 +5.5193698E-01 -2.2165755E-15
outer loop
vertex   +6.5504895E+02 -9.8967102E+02 -1.5500000E+03
vertex   +6.5504895E+02 -9.8967102E+02 -1.6500000E+03
vertex   +3.5424330E+02 -5.3520324E+02 -1.6500000E+03
endloop
endfacet
facet normal +8.3388582E-01 +5.5193698E-01 +0.0000000E+00
outer loop
vertex   +3.5424330E+02 -5.3520324E+02 -1.6500000E+03
vertex   +3.5424330E+02 -5.3520324E+02 -1.5500000E+03
vertex   +6.5504895E+02 -9.8967102E+02 -1.5500000E+03
endloop
endfacet
facet normal +8.3388582E-01 +5.5193698E-01 +0.0000000E+00
outer loop
vertex   +9.5585461E+02 -1.4441387E+03 -1.5500000E+03
vertex   +9.5585461E+02 -1.4441387E+03 -1.6500000E+03
vertex   +6.5504895E+02 -9.8967102E+02 -1.6500000E+03
endloop
endfacet
facet normal +3.8268343E-01 -9.2387953E-01 +0.0000000E+00
outer loop
vertex   +9.5585461E+02 -1.4441387E+03 -1.6500000E+03
vertex   +9.5585461E+02 -1.4441387E+03 -1.5500000E+03
vertex   +3.4526905E+02 -1.6970516E+03 -1.5500000E+03
endloop
endfacet
facet normal +3.8268343E-01 -9.2387953E-01 +0.0000000E+00
outer loop
vertex   +3.4526905E+02 -1.6970516E+03 -1.5500000E+03
vertex   +3.4526905E+02 -1.6970516E+03 -1.6500000E+03
vertex   +9.5585461E+02 -1.4441387E+03 -1.6500000E+03
endloop
endfacet
facet normal -9.7992470E-01 -1.9936793E-01 +0.0000000E+00
outer loop
vertex   +1.2795800E+02 -6.2893368E+02 -1.6500000E+03
vertex   +2.3661352E+02 -1.1629926E+03 -1.6500000E+03
vertex   +2.3661352E+02 -1.1629926E+03 -1.5500000E+03
endloop
endfacet
facet normal -9.7992470E-01 -1.9936793E-01 +0.0000000E+00
outer loop
vertex   +3.4526905E+02 -1.6970516E+03 -1.5500000E+03
vertex   +2.3661352E+02 -1.1629926E+03 -1.5500000E+03
vertex   +2.3661352E+02 -1.1629926E+03 -1.6500000E+03
endloop
endfacet
facet normal -9.7992470E-01 -1.9936793E-01 +0.0000000E+00
outer loop
vertex   +2.3661352E+02 -1.1629926E+03 -1.6500000E+03
vertex   +3.4526905E+02 -1.6970516E+03 -1.6500000E+03
vertex   +3.4526905E+02 -1.6970516E+03 -1.5500000E+03
endloop
endfacet
facet normal -9.7992470E-01 -1.9936793E-01 +0.0000000E+00
outer loop
vertex   +2.3661352E+02 -1.1629926E+03 -1.5500000E+03
vertex   +1.2795800E+02 -6.2893368E+02 -1.5500000E+03
vertex   +1.2795800E+02 -6.2893368E+02 -1.6500000E+03
endloop
endfacet
facet normal -3.8268343E-01 +9.2387953E-01 +0.0000000E+00
outer loop
vertex   +1.2795800E+02 -6.2893368E+02 -1.6500000E+03
vertex   +1.2795800E+02 -6.2893368E+02 -1.5500000E+03
vertex   +3.5424330E+02 -5.3520324E+02 -1.5500000E+03
endloop
endfacet
facet normal -3.8268343E-01 +9.2387953E-01 +0.0000000E+00
outer loop
vertex   +3.5424330E+02 -5.3520324E+02 -1.5500000E+03
vertex   +3.5424330E+02 -5.3520324E+02 -1.6500000E+03
vertex   +1.2795800E+02 -6.2893368E+02 -1.6500000E+03
endloop
endfacet
facet normal -1.6264351E-16 +3.9265619E-16 -1.0000000E+00
outer loop
vertex   +2.3661352E+02 -1.1629926E+03 -1.6500000E+03
vertex   +1.2795800E+02 -6.2893368E+02 -1.6500000E+03
vertex   +3.5424330E+02 -5.3520324E+02 -1.6500000E+03
endloop
endfacet
facet normal +0.0000000E+00 +0.0000000E+00 -1.0000000E+00
outer loop
vertex   +3.4526905E+02 -1.6970516E+03 -1.6500000E+03
vertex   +2.3661352E+02 -1.1629926E+03 -1.6500000E+03
vertex   +6.5504895E+02 -9.8967102E+02 -1.6500000E+03
endloop
endfacet
facet normal +0.0000000E+00 +0.0000000E+00 -1.0000000E+00
outer loop
vertex   +6.5504895E+02 -9.8967102E+02 -1.6500000E+03
vertex   +9.5585461E+02 -1.4441387E+03 -1.6500000E+03
vertex   +3.4526905E+02 -1.6970516E+03 -1.6500000E+03
endloop
endfacet
facet normal -1.6264351E-16 +3.9265619E-16 -1.0000000E-00
outer loop
vertex   +3.5424330E+02 -5.3520324E+02 -1.6500000E+03
vertex   +6.5504895E+02 -9.8967102E+02 -1.6500000E+03
vertex   +2.3661352E+02 -1.1629926E+03 -1.6500000E+03
endloop
endfacet
facet normal -2.9225975E-16 -1.9344250E-16 +1.0000000E+00
outer loop
vertex   +3.4526905E+02 -1.6970516E+03 -1.5500000E+03
vertex   +9.5585461E+02 -1.4441387E+03 -1.5500000E+03
vertex   +6.5504895E+02 -9.8967102E+02 -1.5500000E+03
endloop
endfacet
facet normal +0.0000000E+00 +0.0000000E+00 +1.0000000E-00
outer loop
vertex   +2.3661352E+02 -1.1629926E+03 -1.5500000E+03
vertex   +6.5504895E+02 -9.8967102E+02 -1.5500000E+03
vertex   +3.5424330E+02 -5.3520324E+02 -1.5500000E+03
endloop
endfacet
facet normal +0.0000000E+00 +0.0000000E+00 +1.0000000E+00
outer loop
vertex   +3.5424330E+02 -5.3520324E+02 -1.5500000E+03
vertex   +1.2795800E+02 -6.2893368E+02 -1.5500000E+03
vertex   +2.3661352E+02 -1.1629926E+03 -1.5500000E+03
endloop
endfacet
facet normal +1.6264351E-16 -3.9265619E-16 +1.0000000E+00
outer loop
vertex   +6.5504895E+02 -9.8967102E+02 -1.5500000E+03
vertex   +2.3661352E+02 -1.1629926E+03 -1.5500000E+03
vertex   +3.4526905E+02 -1.6970516E+03 -1.5500000E+03
endloop
endfacet
endsolid
