solid
facet normal -1.9936793E-01 -9.7992470E-01 +0.0000000E+00
outer loop
vertex   -1.0042552E+03 +2.0431803E+02 +1.5500000E+03
vertex   -1.0042552E+03 +2.0431803E+02 +1.6500000E+03
vertex   -1.6970516E+03 +3.4526905E+02 +1.6500000E+03
endloop
endfacet
facet normal -1.9936793E-01 -9.7992470E-01 -4.5331020E-16
outer loop
vertex   -1.6970516E+03 +3.4526905E+02 +1.6500000E+03
vertex   -1.6970516E+03 +3.4526905E+02 +1.5500000E+03
vertex   -1.0042552E+03 +2.0431803E+02 +1.5500000E+03
endloop
endfacet
facet normal +9.2387953E-01 -3.8268343E-01 +1.0503294E-15
outer loop
vertex   -8.5459036E+02 +5.6564102E+02 +1.5500000E+03
vertex   -8.5459036E+02 +5.6564102E+02 +1.6500000E+03
vertex   -1.0042552E+03 +2.0431803E+02 +1.6500000E+03
endloop
endfacet
facet normal +9.2387953E-01 -3.8268343E-01 +0.0000000E+00
outer loop
vertex   -1.0042552E+03 +2.0431803E+02 +1.6500000E+03
vertex   -1.0042552E+03 +2.0431803E+02 +1.5500000E+03
vertex   -8.5459036E+02 +5.6564102E+02 +1.5500000E+03
endloop
endfacet
facet normal +5.5193698E-01 +8.3388582E-01 +6.2747970E-16
outer loop
vertex   -1.4441387E+03 +9.5585461E+02 +1.6500000E+03
vertex   -8.5459036E+02 +5.6564102E+02 +1.6500000E+03
vertex   -8.5459036E+02 +5.6564102E+02 +1.5500000E+03
endloop
endfacet
facet normal +5.5193698E-01 +8.3388582E-01 +0.0000000E+00
outer loop
vertex   -8.5459036E+02 +5.6564102E+02 +1.5500000E+03
vertex   -1.4441387E+03 +9.5585461E+02 +1.5500000E+03
vertex   -1.4441387E+03 +9.5585461E+02 +1.6500000E+03
endloop
endfacet
facet normal -9.2387953E-01 +3.8268343E-01 -2.1006588E-15
outer loop
vertex   -1.6970516E+03 +3.4526905E+02 +1.5500000E+03
vertex   -1.6970516E+03 +3.4526905E+02 +1.6500000E+03
vertex   -1.4441387E+03 +9.5585461E+02 +1.6500000E+03
endloop
endfacet
facet normal -9.2387953E-01 +3.8268343E-01 +0.0000000E+00
outer loop
vertex   -1.4441387E+03 +9.5585461E+02 +1.6500000E+03
vertex   -1.4441387E+03 +9.5585461E+02 +1.5500000E+03
vertex   -1.6970516E+03 +3.4526905E+02 +1.5500000E+03
endloop
endfacet
facet normal +3.0268859E-16 -1.2537772E-16 -1.0000000E+00
outer loop
vertex   -1.6970516E+03 +3.4526905E+02 +1.5500000E+03
vertex   -1.4441387E+03 +9.5585461E+02 +1.5500000E+03
vertex   -8.5459036E+02 +5.6564102E+02 +1.5500000E+03
endloop
endfacet
facet normal +3.0268859E-16 -1.2537772E-16 -1.0000000E+00
outer loop
vertex   -8.5459036E+02 +5.6564102E+02 +1.5500000E+03
vertex   -1.0042552E+03 +2.0431803E+02 +1.5500000E+03
vertex   -1.6970516E+03 +3.4526905E+02 +1.5500000E+03
endloop
endfacet
facet normal -4.2076650E-16 -4.5499376E-16 +1.0000000E+00
outer loop
vertex   -1.6970516E+03 +3.4526905E+02 +1.6500000E+03
vertex   -1.0042552E+03 +2.0431803E+02 +1.6500000E+03
vertex   -8.5459036E+02 +5.6564102E+02 +1.6500000E+03
endloop
endfacet
facet normal -4.9613110E-16 -1.6688202E-16 +1.0000000E+00
outer loop
vertex   -8.5459036E+02 +5.6564102E+02 +1.6500000E+03
vertex   -1.4441387E+03 +9.5585461E+02 +1.6500000E+03
vertex   -1.6970516E+03 +3.4526905E+02 +1.6500000E+03
endloop
endfacet
endsolid
