solid
facet normal +5.5193698E-01 -8.3388582E-01 -6.4107743E-16
outer loop
vertex   -9.8967102E+02 -6.5504895E+02 -1.6500000E+03
vertex   -9.8967102E+02 -6.5504895E+02 -1.5500000E+03
vertex   -1.4441387E+03 -9.5585461E+02 -1.5500000E+03
endloop
endfacet
facet normal +5.5193698E-01 -8.3388582E-01 -6.4107743E-16
outer loop
vertex   -9.8967102E+02 -6.5504895E+02 -1.5500000E+03
vertex   -9.8967102E+02 -6.5504895E+02 -1.6500000E+03
vertex   -5.3520324E+02 -3.5424330E+02 -1.6500000E+03
endloop
endfacet
facet normal +5.5193698E-01 -8.3388582E-01 -4.7400921E-16
outer loop
vertex   -5.3520324E+02 -3.5424330E+02 -1.6500000E+03
vertex   -5.3520324E+02 -3.5424330E+02 -1.5500000E+03
vertex   -9.8967102E+02 -6.5504895E+02 -1.5500000E+03
endloop
endfacet
facet normal +5.5193698E-01 -8.3388582E-01 +0.0000000E+00
outer loop
vertex   -1.4441387E+03 -9.5585461E+02 -1.5500000E+03
vertex   -1.4441387E+03 -9.5585461E+02 -1.6500000E+03
vertex   -9.8967102E+02 -6.5504895E+02 -1.6500000E+03
endloop
endfacet
facet normal -9.2387953E-01 -3.8268343E-01 +0.0000000E+00
outer loop
vertex   -1.4441387E+03 -9.5585461E+02 -1.6500000E+03
vertex   -1.4441387E+03 -9.5585461E+02 -1.5500000E+03
vertex   -1.6970516E+03 -3.4526905E+02 -1.5500000E+03
endloop
endfacet
facet normal -9.2387953E-01 -3.8268343E-01 +0.0000000E+00
outer loop
vertex   -1.6970516E+03 -3.4526905E+02 -1.5500000E+03
vertex   -1.6970516E+03 -3.4526905E+02 -1.6500000E+03
vertex   -1.4441387E+03 -9.5585461E+02 -1.6500000E+03
endloop
endfacet
facet normal -1.9936793E-01 +9.7992470E-01 +2.7851135E-16
outer loop
vertex   -6.2893368E+02 -1.2795800E+02 -1.6500000E+03
vertex   -1.1629926E+03 -2.3661352E+02 -1.6500000E+03
vertex   -1.1629926E+03 -2.3661352E+02 -1.5500000E+03
endloop
endfacet
facet normal -1.9936793E-01 +9.7992470E-01 +2.7851135E-16
outer loop
vertex   -1.6970516E+03 -3.4526905E+02 -1.5500000E+03
vertex   -1.1629926E+03 -2.3661352E+02 -1.5500000E+03
vertex   -1.1629926E+03 -2.3661352E+02 -1.6500000E+03
endloop
endfacet
facet normal -1.9936793E-01 +9.7992470E-01 +0.0000000E+00
outer loop
vertex   -1.1629926E+03 -2.3661352E+02 -1.6500000E+03
vertex   -1.6970516E+03 -3.4526905E+02 -1.6500000E+03
vertex   -1.6970516E+03 -3.4526905E+02 -1.5500000E+03
endloop
endfacet
facet normal -1.9936793E-01 +9.7992470E-01 +2.7851135E-16
outer loop
vertex   -1.1629926E+03 -2.3661352E+02 -1.5500000E+03
vertex   -6.2893368E+02 -1.2795800E+02 -1.5500000E+03
vertex   -6.2893368E+02 -1.2795800E+02 -1.6500000E+03
endloop
endfacet
facet normal +9.2387953E-01 +3.8268343E-01 +1.0876517E-16
outer loop
vertex   -6.2893368E+02 -1.2795800E+02 -1.6500000E+03
vertex   -6.2893368E+02 -1.2795800E+02 -1.5500000E+03
vertex   -5.3520324E+02 -3.5424330E+02 -1.5500000E+03
endloop
endfacet
facet normal +9.2387953E-01 +3.8268343E-01 +2.1753034E-16
outer loop
vertex   -5.3520324E+02 -3.5424330E+02 -1.5500000E+03
vertex   -5.3520324E+02 -3.5424330E+02 -1.6500000E+03
vertex   -6.2893368E+02 -1.2795800E+02 -1.6500000E+03
endloop
endfacet
facet normal -1.0196140E-16 +5.0115631E-16 -1.0000000E+00
outer loop
vertex   -1.6970516E+03 -3.4526905E+02 -1.6500000E+03
vertex   -1.1629926E+03 -2.3661352E+02 -1.6500000E+03
vertex   -9.8967102E+02 -6.5504895E+02 -1.6500000E+03
endloop
endfacet
facet normal +0.0000000E+00 +0.0000000E+00 -1.0000000E-00
outer loop
vertex   -1.1629926E+03 -2.3661352E+02 -1.6500000E+03
vertex   -6.2893368E+02 -1.2795800E+02 -1.6500000E+03
vertex   -5.3520324E+02 -3.5424330E+02 -1.6500000E+03
endloop
endfacet
facet normal +1.1038276E-16 +5.8911214E-16 -1.0000000E+00
outer loop
vertex   -5.3520324E+02 -3.5424330E+02 -1.6500000E+03
vertex   -9.8967102E+02 -6.5504895E+02 -1.6500000E+03
vertex   -1.1629926E+03 -2.3661352E+02 -1.6500000E+03
endloop
endfacet
facet normal -1.9344250E-16 +2.9225975E-16 -1.0000000E+00
outer loop
vertex   -9.8967102E+02 -6.5504895E+02 -1.6500000E+03
vertex   -1.4441387E+03 -9.5585461E+02 -1.6500000E+03
vertex   -1.6970516E+03 -3.4526905E+02 -1.6500000E+03
endloop
endfacet
facet normal +0.0000000E+00 +0.0000000E+00 +1.0000000E+00
outer loop
vertex   -1.1629926E+03 -2.3661352E+02 -1.5500000E+03
vertex   -9.8967102E+02 -6.5504895E+02 -1.5500000E+03
vertex   -5.3520324E+02 -3.5424330E+02 -1.5500000E+03
endloop
endfacet
facet normal +0.0000000E+00 +0.0000000E+00 +1.0000000E+00
outer loop
vertex   -1.4441387E+03 -9.5585461E+02 -1.5500000E+03
vertex   -9.8967102E+02 -6.5504895E+02 -1.5500000E+03
vertex   -1.1629926E+03 -2.3661352E+02 -1.5500000E+03
endloop
endfacet
facet normal +0.0000000E+00 +0.0000000E+00 +1.0000000E+00
outer loop
vertex   -1.1629926E+03 -2.3661352E+02 -1.5500000E+03
vertex   -1.6970516E+03 -3.4526905E+02 -1.5500000E+03
vertex   -1.4441387E+03 -9.5585461E+02 -1.5500000E+03
endloop
endfacet
facet normal -2.0411427E-16 -1.0893566E-15 +1.0000000E+00
outer loop
vertex   -5.3520324E+02 -3.5424330E+02 -1.5500000E+03
vertex   -6.2893368E+02 -1.2795800E+02 -1.5500000E+03
vertex   -1.1629926E+03 -2.3661352E+02 -1.5500000E+03
endloop
endfacet
endsolid
